<svg width="459.5999999999999" height="133.41647023944537" viewBox="0 0 369.5689655172414 107.28152064698358" class="css-1j8o68f"><defs id="SvgjsDefs2424"></defs><g id="SvgjsG2425" featurekey="symbolFeature-0" transform="matrix(1.253288814945684,0,0,1.253288814945684,-27.087994404532274,-8.397034821090212)" fill="#db915e"><g xmlns="http://www.w3.org/2000/svg" data-name="Capa 2"><path d="M40.39,30.18a5,5,0,0,0-4.34,2.51A1.67,1.67,0,0,0,39,34.36a1.67,1.67,0,0,1,2.89,0,1.68,1.68,0,0,0,1.45.83,1.73,1.73,0,0,0,.84-.22,1.68,1.68,0,0,0,.61-2.28,5,5,0,0,0-4.35-2.51Z"></path><path d="M75.89,58.5a15.27,15.27,0,0,0-2.4-6.19,27,27,0,0,0,3.45-24.42A11.73,11.73,0,0,0,81.8,18.4c-.08-11.34-14.55-16-21.2-6.84-.32-.12-.64-.22-1-.32a1.67,1.67,0,1,0-1,3.19C73.4,18.74,79.84,37,71.23,49.69a14.89,14.89,0,0,0-4.76-2.92A14.64,14.64,0,0,0,53.37,48V44.48a6.7,6.7,0,0,0,4.56-5.72c0-2.61-2.74-4.65-6.23-4.65s-6.23,2-6.23,4.65A6.7,6.7,0,0,0,50,44.48V48a14.64,14.64,0,0,0-13.1-1.27,14.89,14.89,0,0,0-4.76,2.92C23.56,37,30,18.74,44.75,14.43a1.67,1.67,0,1,0-1-3.19c-.32.1-.64.2-1,.32A11.7,11.7,0,0,0,33.31,6.7c-11.34.07-16,14.53-6.85,21.19a27,27,0,0,0,3.45,24.42,15.27,15.27,0,0,0-2.4,6.19A6.24,6.24,0,0,0,22,63.07a6.18,6.18,0,0,0,4.38,7.57l2.82.76a6.71,6.71,0,0,0,1.16.2l.25.45a38.07,38.07,0,0,0,2.12,3.24A7.56,7.56,0,0,0,29,79a9.68,9.68,0,0,0,3.2,11.93,7.46,7.46,0,0,0,6.17,1.13,7.8,7.8,0,0,0,5.41-5.8,25,25,0,0,0,7.54,4.06,1.57,1.57,0,0,0,.86,0,25,25,0,0,0,7.54-4.06,7.8,7.8,0,0,0,5.41,5.8,7.36,7.36,0,0,0,1.86.24,7.64,7.64,0,0,0,4.31-1.37A9.37,9.37,0,0,0,75,85.54c1.13-3.93-.55-8.64-4.32-10.25a38.07,38.07,0,0,0,2.12-3.24l.25-.45a6.71,6.71,0,0,0,1.16-.2L77,70.64A6.18,6.18,0,0,0,75.89,58.5ZM71.76,19.1l1.33-1.34a1.67,1.67,0,0,0-2.36-2.36l-1.34,1.34a27.11,27.11,0,0,0-5.61-3.82,8.36,8.36,0,1,1,11.8,11.79,27,27,0,0,0-3.82-5.61ZM25,18.4a8.38,8.38,0,0,1,14.67-5.48A27.11,27.11,0,0,0,34,16.74L32.67,15.4a1.67,1.67,0,0,0-2.36,2.36l1.33,1.34a27,27,0,0,0-3.82,5.61A8.39,8.39,0,0,1,25,18.4ZM48.82,38.76c0-.46,1.09-1.31,2.88-1.31s2.88.85,2.88,1.31a3.46,3.46,0,0,1-2.88,2.65,3.46,3.46,0,0,1-2.88-2.65ZM27.23,67.41a2.78,2.78,0,0,1-1.72-1.32,2.85,2.85,0,0,1,3.19-4.17l2.83.76a2.84,2.84,0,0,1-1.47,5.49ZM40.09,86.54A4,4,0,0,1,34,88.16,6.33,6.33,0,0,1,32,80.46,4,4,0,0,1,38,78.83a6.36,6.36,0,0,1,2.06,7.71ZM51.7,87a28.94,28.94,0,0,1-7.89-4.87l-.15-.64a9.45,9.45,0,0,0-3.76-5.39,7.9,7.9,0,0,0-3.38-1.31,36.4,36.4,0,0,1-2.75-3.91l.11-.06a6.18,6.18,0,0,0-1.49-11.33L30.82,59a11.51,11.51,0,0,1,19.7-6.35,1.67,1.67,0,0,0,2.36,0A11.51,11.51,0,0,1,72.58,59L71,59.45a6.18,6.18,0,0,0-1.49,11.33l.11.06a37.73,37.73,0,0,1-2.74,3.91,8.92,8.92,0,0,0-7.15,6.7c-.05.21-.1.42-.14.64A29.11,29.11,0,0,1,51.7,87Zm20.07-2.28a6,6,0,0,1-2.4,3.48,4.15,4.15,0,0,1-3.42.67,4.19,4.19,0,0,1-2.64-2.29,6.36,6.36,0,0,1,2.06-7.71,4,4,0,0,1,6.07,1.63,6,6,0,0,1,.33,4.22Zm6.12-18.59a2.78,2.78,0,0,1-1.72,1.32l-2.83.76a2.84,2.84,0,0,1-1.47-5.49l2.83-.76a2.85,2.85,0,0,1,3.19,4.17Zm0,0"></path><path d="M61.56,34.36a1.68,1.68,0,0,1,2.9,0,1.67,1.67,0,0,0,2.89-1.67,5,5,0,0,0-8.69,0,1.67,1.67,0,0,0,2.9,1.67Z"></path><path d="M51.7,13.38a1.67,1.67,0,0,0,0-3.34h0a1.67,1.67,0,0,0,0,3.34Z"></path></g></g><g id="SvgjsG2426" featurekey="nameFeature-0" transform="matrix(2.055156833634428,0,0,2.055156833634428,90.88968437278086,0.9822418953341767)" fill="#db915e"><path d="M13.6 20 l6 0 l0 2 c0 3.04 -1.04 5.96 -3.28 8.04 l5.28 9.96 l-7.4 0 l-6.2 -11.84 l0 11.84 l-6 0 l0 -28 l6 0 l0 15.08 l0.92 0 c3.24 0 4.68 -2.16 4.68 -5.12 l0 -1.96 z M23.2 20 l6 0 l0 20 l-6 0 l0 -20 z M26.2 18.12 c-2.04 0 -3.48 -1.44 -3.48 -3.48 c0 -2.08 1.44 -3.44 3.48 -3.44 c2.08 0 3.44 1.36 3.44 3.44 c0 2.12 -1.32 3.48 -3.44 3.48 z M47.44 30 c0 -3 -1.48 -4.64 -4.52 -4.64 c-0.84 0 -1.56 0.12 -2.16 0.36 c-1.12 0.52 -1.88 1.28 -2.24 2.48 c-0.2 0.56 -0.28 1.16 -0.28 1.8 s0.08 1.24 0.28 1.8 c0.32 1.16 1.16 2 2.24 2.44 c0.6 0.28 1.32 0.4 2.16 0.4 c3.04 0 4.52 -1.64 4.52 -4.64 z M47.44 22 l0 -10 l6 0 l0 18 c0 6.36 -4.52 10.2 -10.56 10.2 c-6.16 0 -10.64 -4 -10.64 -10.12 c0 -5.64 4.16 -10.28 9.84 -10.28 c2.12 0 3.96 0.6 5.36 2.2 z M57.239999999999995 12 l6 0 l0 28 l-6 0 l0 -28 z M81.47999999999999 30 c-0.16 -2.92 -1.48 -4.64 -4.52 -4.64 c-0.84 0 -1.56 0.12 -2.16 0.36 c-1.84 0.84 -2.52 2.4 -2.52 4.32 c0 0.64 0.08 1.24 0.28 1.76 c0.6 2.08 2.4 2.84 4.4 2.84 c3.04 0 4.52 -1.64 4.52 -4.64 z M89.08 40 l-6 0 c-0.4 -1 -0.76 -2 -1 -3.04 c-1.36 2.24 -3.44 3.24 -6 3.24 c-5.72 0 -9.8 -4.8 -9.8 -10.28 c0 -6.32 4.72 -10.12 10.68 -10.12 c6.36 0 10.36 4.08 10.52 10.2 c0.04 0.52 0.04 1.12 0.04 1.84 c0 2.8 0.44 5.6 1.56 8.16 z M111.88 30 l0 10 l-6 0 l0 -10 c0 -2.76 -1.28 -4.64 -4.2 -4.64 c-2.88 0 -4.2 1.92 -4.2 4.64 l0 10 l-6 0 l0 -10 c0 -6.16 4.24 -10.2 10.2 -10.2 c6.2 0 10.2 4.24 10.2 10.2 z M129.6 30 c0 -3 -1.48 -4.64 -4.52 -4.64 c-0.84 0 -1.56 0.12 -2.16 0.36 c-1.12 0.52 -1.88 1.28 -2.24 2.48 c-0.2 0.56 -0.28 1.16 -0.28 1.8 s0.08 1.24 0.28 1.8 c0.32 1.16 1.16 2 2.24 2.44 c0.6 0.28 1.32 0.4 2.16 0.4 c3.04 0 4.52 -1.64 4.52 -4.64 z M129.6 22 l0 -10 l6 0 l0 18 c0 6.36 -4.52 10.2 -10.56 10.2 c-6.16 0 -10.64 -4 -10.64 -10.12 c0 -5.64 4.16 -10.28 9.84 -10.28 c2.12 0 3.96 0.6 5.36 2.2 z"></path></g></svg>